<svg width="213" height="16" viewBox="0 0 213 16" fill="none" xmlns="http://www.w3.org/2000/svg">
    <path d="M6.54492 10.4336H5.46094C5.42578 10.6914 5.36523 10.9316 5.2793 11.1543C5.19336 11.373 5.07812 11.5625 4.93359 11.7227C4.78906 11.8867 4.61133 12.0137 4.40039 12.1035C4.19336 12.1934 3.94727 12.2383 3.66211 12.2383C3.40039 12.2383 3.17188 12.1973 2.97656 12.1152C2.78125 12.0293 2.61133 11.9121 2.4668 11.7637C2.32227 11.6191 2.20312 11.4512 2.10938 11.2598C2.01562 11.0684 1.93945 10.8633 1.88086 10.6445C1.82227 10.4297 1.7793 10.2109 1.75195 9.98828C1.72852 9.76172 1.7168 9.54297 1.7168 9.33203V8.13086C1.7168 7.91992 1.72852 7.70312 1.75195 7.48047C1.7793 7.25391 1.82227 7.0332 1.88086 6.81836C1.93945 6.60352 2.01562 6.40039 2.10938 6.20898C2.20703 6.01758 2.32812 5.84961 2.47266 5.70508C2.61328 5.56055 2.78125 5.44727 2.97656 5.36523C3.17578 5.2793 3.4043 5.23633 3.66211 5.23633C3.94727 5.23633 4.19336 5.28516 4.40039 5.38281C4.61133 5.47656 4.78906 5.60742 4.93359 5.77539C5.07812 5.94336 5.19336 6.13867 5.2793 6.36133C5.36523 6.58398 5.42578 6.82422 5.46094 7.08203H6.54492C6.49805 6.67578 6.40039 6.30469 6.25195 5.96875C6.10742 5.63281 5.91406 5.34375 5.67188 5.10156C5.42969 4.86328 5.14062 4.67969 4.80469 4.55078C4.46875 4.41797 4.08789 4.35156 3.66211 4.35156C3.30664 4.35156 2.98633 4.40234 2.70117 4.50391C2.41602 4.60156 2.16211 4.73828 1.93945 4.91406C1.71289 5.08984 1.51758 5.29883 1.35352 5.54102C1.19336 5.7793 1.06055 6.03906 0.955078 6.32031C0.845703 6.60156 0.763672 6.89648 0.708984 7.20508C0.658203 7.51367 0.630859 7.82617 0.626953 8.14258V9.33203C0.630859 9.64844 0.658203 9.96094 0.708984 10.2695C0.763672 10.5781 0.845703 10.873 0.955078 11.1543C1.06055 11.4355 1.19336 11.6953 1.35352 11.9336C1.51758 12.1719 1.71289 12.3789 1.93945 12.5547C2.16211 12.7305 2.41602 12.8691 2.70117 12.9707C2.99023 13.0684 3.31055 13.1172 3.66211 13.1172C4.07227 13.1172 4.44336 13.0527 4.77539 12.9238C5.11133 12.791 5.40234 12.6055 5.64844 12.3672C5.89062 12.1328 6.08789 11.8516 6.24023 11.5234C6.39258 11.1914 6.49414 10.8281 6.54492 10.4336ZM7.92188 9.77148V9.90039C7.92188 10.3574 7.98828 10.7812 8.12109 11.1719C8.25391 11.5625 8.44531 11.9023 8.69531 12.1914C8.94141 12.4805 9.24219 12.707 9.59766 12.8711C9.95703 13.0352 10.3613 13.1172 10.8105 13.1172C11.2559 13.1172 11.6562 13.0352 12.0117 12.8711C12.3672 12.707 12.6699 12.4805 12.9199 12.1914C13.166 11.9023 13.3555 11.5625 13.4883 11.1719C13.6211 10.7812 13.6875 10.3574 13.6875 9.90039V9.77148C13.6875 9.31445 13.6211 8.89062 13.4883 8.5C13.3555 8.10547 13.166 7.76367 12.9199 7.47461C12.6699 7.18555 12.3652 6.95898 12.0059 6.79492C11.6504 6.62695 11.248 6.54297 10.7988 6.54297C10.3535 6.54297 9.95312 6.62695 9.59766 6.79492C9.24219 6.95898 8.94141 7.18555 8.69531 7.47461C8.44531 7.76367 8.25391 8.10547 8.12109 8.5C7.98828 8.89062 7.92188 9.31445 7.92188 9.77148ZM9.00586 9.90039V9.77148C9.00586 9.46289 9.04297 9.16797 9.11719 8.88672C9.19141 8.60156 9.30469 8.35156 9.45703 8.13672C9.60547 7.92188 9.79102 7.75195 10.0137 7.62695C10.2363 7.49805 10.498 7.43359 10.7988 7.43359C11.0996 7.43359 11.3613 7.49805 11.584 7.62695C11.8105 7.75195 12 7.92188 12.1523 8.13672C12.3008 8.35156 12.4121 8.60156 12.4863 8.88672C12.5645 9.16797 12.6035 9.46289 12.6035 9.77148V9.90039C12.6035 10.2129 12.5664 10.5117 12.4922 10.7969C12.418 11.0781 12.3066 11.3262 12.1582 11.541C12.0059 11.7559 11.8164 11.9258 11.5898 12.0508C11.3672 12.1758 11.1074 12.2383 10.8105 12.2383C10.5098 12.2383 10.2461 12.1758 10.0195 12.0508C9.79297 11.9258 9.60547 11.7559 9.45703 11.541C9.30469 11.3262 9.19141 11.0781 9.11719 10.7969C9.04297 10.5117 9.00586 10.2129 9.00586 9.90039ZM15.4277 15.4375H16.5117V12.3906C16.5898 12.4766 16.6738 12.5566 16.7637 12.6309C16.8535 12.7012 16.9492 12.7656 17.0508 12.8242C17.2188 12.918 17.4062 12.9902 17.6133 13.041C17.8242 13.0918 18.0508 13.1172 18.293 13.1172C18.6914 13.1172 19.0449 13.0352 19.3535 12.8711C19.666 12.707 19.9277 12.4805 20.1387 12.1914C20.3496 11.9023 20.5098 11.5625 20.6191 11.1719C20.7285 10.7773 20.7832 10.3535 20.7832 9.90039V9.77734C20.7832 9.30469 20.7285 8.87109 20.6191 8.47656C20.5098 8.07812 20.3496 7.73633 20.1387 7.45117C19.9277 7.16602 19.666 6.94336 19.3535 6.7832C19.041 6.62305 18.6816 6.54297 18.2754 6.54297C18.0449 6.54297 17.8281 6.56836 17.625 6.61914C17.4258 6.66602 17.2441 6.73633 17.0801 6.83008C16.9629 6.89258 16.8535 6.96875 16.752 7.05859C16.6504 7.14453 16.5566 7.24219 16.4707 7.35156L16.418 6.66016H15.4277V15.4375ZM19.6992 9.77734V9.90039C19.6992 10.209 19.6641 10.5039 19.5938 10.7852C19.5273 11.0664 19.4238 11.3145 19.2832 11.5293C19.1426 11.7441 18.9629 11.916 18.7441 12.0449C18.5254 12.1699 18.2656 12.2324 17.9648 12.2324C17.7773 12.2324 17.6055 12.209 17.4492 12.1621C17.2969 12.1152 17.1582 12.0508 17.0332 11.9688C16.9238 11.8984 16.8262 11.8125 16.7402 11.7109C16.6543 11.6094 16.5781 11.5 16.5117 11.3828V8.33008C16.5859 8.19727 16.6719 8.07617 16.7695 7.9668C16.8672 7.85742 16.9785 7.76562 17.1035 7.69141C17.2168 7.61719 17.3438 7.56055 17.4844 7.52148C17.6289 7.48242 17.7852 7.46289 17.9531 7.46289C18.2578 7.46289 18.5195 7.52539 18.7383 7.65039C18.957 7.77539 19.1387 7.94336 19.2832 8.1543C19.4238 8.36914 19.5273 8.61719 19.5938 8.89844C19.6641 9.17578 19.6992 9.46875 19.6992 9.77734ZM23.1504 15.5605C23.4355 15.5605 23.6875 15.5078 23.9062 15.4023C24.125 15.2969 24.3164 15.166 24.4805 15.0098C24.6445 14.8535 24.7832 14.6836 24.8965 14.5C25.0137 14.3164 25.1094 14.1426 25.1836 13.9785L28.4004 6.66016H27.1875L25.5527 10.7734L25.2539 11.5176L24.9727 10.75L23.2324 6.66016H22.0195L24.75 12.7012L24.3164 13.5449C24.2773 13.623 24.2227 13.7227 24.1523 13.8438C24.0859 13.9648 24.0059 14.082 23.9121 14.1953C23.8145 14.3086 23.7031 14.4062 23.5781 14.4883C23.457 14.5703 23.3223 14.6113 23.1738 14.6113C23.1191 14.6113 23.043 14.6074 22.9453 14.5996C22.8516 14.5957 22.7559 14.5898 22.6582 14.582L22.4824 15.4668C22.5527 15.4824 22.6562 15.502 22.793 15.5254C22.9297 15.5488 23.0488 15.5605 23.1504 15.5605ZM34.002 6.54297C33.541 6.54297 33.1289 6.64453 32.7656 6.84766C32.4062 7.04688 32.0977 7.32031 31.8398 7.66797L31.834 7.50977L31.7871 6.66016H30.7559V13H31.8457V8.93359C31.916 8.73828 32.0039 8.5625 32.1094 8.40625C32.2188 8.24609 32.3457 8.11133 32.4902 8.00195C32.6504 7.87695 32.8379 7.7832 33.0527 7.7207C33.2676 7.6543 33.5078 7.62109 33.7734 7.62109C33.9805 7.62109 34.1777 7.63281 34.3652 7.65625C34.5566 7.67578 34.7578 7.70898 34.9688 7.75586L35.1152 6.69531C35.0059 6.64844 34.8418 6.61133 34.623 6.58398C34.4082 6.55664 34.2012 6.54297 34.002 6.54297ZM37.2246 6.66016V7.60352H39.3809V12.0625H37.2246V13H42.5332V12.0625H40.4648V6.66016H37.2246ZM39.2402 4.99609C39.2402 5.17188 39.293 5.31836 39.3984 5.43555C39.5078 5.55273 39.6719 5.61133 39.8906 5.61133C40.1055 5.61133 40.2676 5.55273 40.377 5.43555C40.4863 5.31836 40.541 5.17188 40.541 4.99609C40.541 4.89844 40.5254 4.80859 40.4941 4.72656C40.4629 4.64453 40.416 4.57617 40.3535 4.52148C40.3027 4.4707 40.2383 4.43164 40.1602 4.4043C40.082 4.37305 39.9922 4.35742 39.8906 4.35742C39.7891 4.35742 39.6973 4.37305 39.6152 4.4043C39.5371 4.43164 39.4727 4.4707 39.4219 4.52148C39.3594 4.58008 39.3125 4.65039 39.2812 4.73242C39.2539 4.81445 39.2402 4.90234 39.2402 4.99609ZM44.0625 9.77734V9.90039C44.0625 10.3535 44.1211 10.7773 44.2383 11.1719C44.3555 11.5625 44.5234 11.9023 44.7422 12.1914C44.957 12.4805 45.2207 12.707 45.5332 12.8711C45.8457 13.0352 46.1953 13.1172 46.582 13.1172C46.8125 13.1172 47.0273 13.0918 47.2266 13.041C47.4258 12.9941 47.6074 12.9258 47.7715 12.8359C47.877 12.7773 47.9746 12.709 48.0645 12.6309C48.1582 12.5527 48.2461 12.4668 48.3281 12.373V12.918C48.3281 13.1914 48.2891 13.4336 48.2109 13.6445C48.1328 13.8555 48.0215 14.0312 47.877 14.1719C47.7285 14.3164 47.5508 14.4258 47.3438 14.5C47.1367 14.5742 46.9043 14.6113 46.6465 14.6113C46.502 14.6113 46.3574 14.5957 46.2129 14.5645C46.0684 14.5371 45.9238 14.4902 45.7793 14.4238C45.6348 14.3574 45.4922 14.2676 45.3516 14.1543C45.2109 14.0449 45.0742 13.9102 44.9414 13.75L44.3789 14.4004C44.5234 14.6074 44.6953 14.7812 44.8945 14.9219C45.0977 15.0625 45.3086 15.1738 45.5273 15.2559C45.7422 15.3418 45.9551 15.4023 46.166 15.4375C46.377 15.4766 46.5645 15.4961 46.7285 15.4961C47.127 15.4961 47.4902 15.4375 47.8184 15.3203C48.1465 15.2031 48.4297 15.0312 48.668 14.8047C48.9023 14.5781 49.084 14.3027 49.2129 13.9785C49.3457 13.6543 49.4121 13.2832 49.4121 12.8652V6.66016H48.4277L48.375 7.35156C48.3008 7.25781 48.2207 7.17188 48.1348 7.09375C48.0527 7.01562 47.9648 6.94727 47.8711 6.88867C47.6992 6.77539 47.5059 6.68945 47.291 6.63086C47.0801 6.57227 46.8477 6.54297 46.5938 6.54297C46.1992 6.54297 45.8457 6.62305 45.5332 6.7832C45.2207 6.94336 44.9551 7.16602 44.7363 7.45117C44.5176 7.73633 44.3496 8.07812 44.2324 8.47656C44.1191 8.87109 44.0625 9.30469 44.0625 9.77734ZM45.1465 9.90039V9.77734C45.1465 9.46875 45.1777 9.17578 45.2402 8.89844C45.3066 8.61719 45.4102 8.36914 45.5508 8.1543C45.6875 7.94336 45.8633 7.77539 46.0781 7.65039C46.2969 7.52539 46.5586 7.46289 46.8633 7.46289C47.043 7.46289 47.207 7.48633 47.3555 7.5332C47.5039 7.57617 47.6387 7.63672 47.7598 7.71484C47.8809 7.79688 47.9883 7.89258 48.082 8.00195C48.1758 8.11133 48.2578 8.23242 48.3281 8.36523V11.2715C48.2578 11.4082 48.1758 11.5332 48.082 11.6465C47.9883 11.7598 47.8828 11.8574 47.7656 11.9395C47.6445 12.0215 47.5078 12.0859 47.3555 12.1328C47.207 12.1758 47.0391 12.1973 46.8516 12.1973C46.5508 12.1973 46.293 12.1367 46.0781 12.0156C45.8633 11.8906 45.6875 11.7227 45.5508 11.5117C45.4102 11.3008 45.3066 11.0566 45.2402 10.7793C45.1777 10.502 45.1465 10.209 45.1465 9.90039ZM52.5527 7.60352V4H51.4688V13H52.5527V8.39453C52.6309 8.26953 52.7188 8.15625 52.8164 8.05469C52.918 7.94922 53.0273 7.85742 53.1445 7.7793C53.293 7.67773 53.4551 7.59961 53.6309 7.54492C53.8066 7.49023 53.9922 7.46289 54.1875 7.46289C54.4258 7.45898 54.6367 7.49219 54.8203 7.5625C55.0039 7.62891 55.1562 7.73047 55.2773 7.86719C55.3906 7.99219 55.4766 8.15039 55.5352 8.3418C55.5938 8.5293 55.623 8.74805 55.623 8.99805V13H56.707V9.00977C56.707 8.58398 56.6543 8.2168 56.5488 7.9082C56.4473 7.5957 56.3008 7.33789 56.1094 7.13477C55.918 6.93164 55.6855 6.7832 55.4121 6.68945C55.1426 6.5918 54.8418 6.54297 54.5098 6.54297C54.2559 6.54688 54.0156 6.58398 53.7891 6.6543C53.5664 6.72461 53.3613 6.82812 53.1738 6.96484C53.0566 7.04688 52.9453 7.14258 52.8398 7.25195C52.7344 7.35742 52.6387 7.47461 52.5527 7.60352ZM61.2422 5.125H60.1523V6.66016H58.4883V7.49805H60.1523V10.9434C60.1523 11.334 60.2031 11.668 60.3047 11.9453C60.4102 12.2188 60.5527 12.4414 60.7324 12.6133C60.9121 12.7891 61.123 12.918 61.3652 13C61.6113 13.0781 61.875 13.1172 62.1562 13.1172C62.3242 13.1172 62.4922 13.1094 62.6602 13.0938C62.832 13.0781 62.9941 13.0547 63.1465 13.0234C63.2988 12.9961 63.4395 12.9629 63.5684 12.9238C63.6973 12.8809 63.8066 12.832 63.8965 12.7773L63.7441 12.0098C63.6777 12.0254 63.5918 12.0449 63.4863 12.0684C63.3848 12.0879 63.2754 12.1074 63.1582 12.127C63.0371 12.1465 62.9141 12.1641 62.7891 12.1797C62.6641 12.1914 62.543 12.1973 62.4258 12.1973C62.2656 12.1973 62.1133 12.1777 61.9688 12.1387C61.8281 12.0996 61.7031 12.0312 61.5938 11.9336C61.4844 11.8398 61.3984 11.7129 61.3359 11.5527C61.2734 11.3926 61.2422 11.1895 61.2422 10.9434V7.49805H63.6562V6.66016H61.2422V5.125Z" fill="#474747"/>
    <path d="M95.252 12V11.1152H90.9688L93.2598 8.63086C93.4746 8.39648 93.6777 8.16211 93.8691 7.92773C94.0645 7.68945 94.2363 7.44922 94.3848 7.20703C94.5293 6.96484 94.6445 6.7207 94.7305 6.47461C94.8164 6.22461 94.8594 5.97266 94.8594 5.71875C94.8594 5.37891 94.7988 5.06445 94.6777 4.77539C94.5605 4.48633 94.3906 4.23633 94.168 4.02539C93.9453 3.81445 93.6719 3.65039 93.3477 3.5332C93.0273 3.41211 92.666 3.35156 92.2637 3.35156C91.8262 3.35156 91.4355 3.42188 91.0918 3.5625C90.752 3.70312 90.4648 3.89258 90.2305 4.13086C89.9922 4.36914 89.8105 4.64844 89.6855 4.96875C89.5605 5.28516 89.498 5.62305 89.498 5.98242H90.5879C90.5879 5.7168 90.6211 5.47656 90.6875 5.26172C90.7578 5.04688 90.8633 4.86328 91.0039 4.71094C91.1406 4.5625 91.3125 4.44727 91.5195 4.36523C91.7305 4.2832 91.9785 4.24219 92.2637 4.24219C92.498 4.24219 92.707 4.2832 92.8906 4.36523C93.0781 4.44336 93.2383 4.55078 93.3711 4.6875C93.5 4.82422 93.5977 4.98633 93.6641 5.17383C93.7344 5.35742 93.7695 5.55469 93.7695 5.76562C93.7695 5.9375 93.748 6.10547 93.7051 6.26953C93.6621 6.42969 93.5898 6.59961 93.4883 6.7793C93.3867 6.96289 93.252 7.16211 93.084 7.37695C92.916 7.5918 92.707 7.83789 92.457 8.11523L89.6621 11.2207V12H95.252ZM102.582 8.73633V6.73828C102.582 6.19531 102.52 5.71484 102.395 5.29688C102.27 4.875 102.09 4.51953 101.855 4.23047C101.617 3.94141 101.326 3.72266 100.982 3.57422C100.643 3.42188 100.254 3.3457 99.8164 3.3457C99.3828 3.3457 98.9941 3.42188 98.6504 3.57422C98.3105 3.72266 98.0234 3.94141 97.7891 4.23047C97.5508 4.51953 97.3691 4.875 97.2441 5.29688C97.1191 5.71484 97.0566 6.19531 97.0566 6.73828V8.73633C97.0566 9.2793 97.1191 9.76172 97.2441 10.1836C97.3691 10.6016 97.5508 10.9531 97.7891 11.2383C98.0273 11.5312 98.3184 11.752 98.6621 11.9004C99.0059 12.0449 99.3945 12.1172 99.8281 12.1172C100.266 12.1172 100.654 12.043 100.994 11.8945C101.334 11.7461 101.621 11.5273 101.855 11.2383C102.09 10.9531 102.27 10.6016 102.395 10.1836C102.52 9.76172 102.582 9.2793 102.582 8.73633ZM98.1465 8.51953C98.1465 8.41797 98.1465 8.31836 98.1465 8.2207C98.1465 8.12305 98.1465 8.02539 98.1465 7.92773V6.49805C98.1465 6.09961 98.1855 5.75 98.2637 5.44922C98.3457 5.14453 98.4688 4.89648 98.6328 4.70508C98.7695 4.55273 98.9355 4.4375 99.1309 4.35938C99.3301 4.27734 99.5586 4.23633 99.8164 4.23633C100.07 4.23633 100.293 4.27344 100.484 4.34766C100.68 4.42188 100.844 4.5332 100.977 4.68164C101.113 4.82617 101.221 5.00781 101.299 5.22656C101.381 5.44141 101.438 5.68945 101.469 5.9707L98.1465 8.51953ZM101.492 8.96484C101.492 9.38281 101.449 9.74609 101.363 10.0547C101.281 10.3633 101.15 10.6133 100.971 10.8047C100.838 10.9453 100.676 11.0527 100.484 11.127C100.293 11.2012 100.074 11.2383 99.8281 11.2383C99.5938 11.2383 99.3828 11.2051 99.1953 11.1387C99.0078 11.0684 98.8477 10.9668 98.7148 10.834C98.5703 10.6934 98.4531 10.5156 98.3633 10.3008C98.2734 10.082 98.2109 9.83008 98.1758 9.54492L101.492 7.00781C101.492 7.11719 101.492 7.25586 101.492 7.42383C101.492 7.58789 101.492 7.69922 101.492 7.75781V8.96484ZM109.666 12V11.1152H105.383L107.674 8.63086C107.889 8.39648 108.092 8.16211 108.283 7.92773C108.479 7.68945 108.65 7.44922 108.799 7.20703C108.943 6.96484 109.059 6.7207 109.145 6.47461C109.23 6.22461 109.273 5.97266 109.273 5.71875C109.273 5.37891 109.213 5.06445 109.092 4.77539C108.975 4.48633 108.805 4.23633 108.582 4.02539C108.359 3.81445 108.086 3.65039 107.762 3.5332C107.441 3.41211 107.08 3.35156 106.678 3.35156C106.24 3.35156 105.85 3.42188 105.506 3.5625C105.166 3.70312 104.879 3.89258 104.645 4.13086C104.406 4.36914 104.225 4.64844 104.1 4.96875C103.975 5.28516 103.912 5.62305 103.912 5.98242H105.002C105.002 5.7168 105.035 5.47656 105.102 5.26172C105.172 5.04688 105.277 4.86328 105.418 4.71094C105.555 4.5625 105.727 4.44727 105.934 4.36523C106.145 4.2832 106.393 4.24219 106.678 4.24219C106.912 4.24219 107.121 4.2832 107.305 4.36523C107.492 4.44336 107.652 4.55078 107.785 4.6875C107.914 4.82422 108.012 4.98633 108.078 5.17383C108.148 5.35742 108.184 5.55469 108.184 5.76562C108.184 5.9375 108.162 6.10547 108.119 6.26953C108.076 6.42969 108.004 6.59961 107.902 6.7793C107.801 6.96289 107.666 7.16211 107.498 7.37695C107.33 7.5918 107.121 7.83789 106.871 8.11523L104.076 11.2207V12H109.666ZM116.996 8.73633V6.73828C116.996 6.19531 116.934 5.71484 116.809 5.29688C116.684 4.875 116.504 4.51953 116.27 4.23047C116.031 3.94141 115.74 3.72266 115.396 3.57422C115.057 3.42188 114.668 3.3457 114.23 3.3457C113.797 3.3457 113.408 3.42188 113.064 3.57422C112.725 3.72266 112.438 3.94141 112.203 4.23047C111.965 4.51953 111.783 4.875 111.658 5.29688C111.533 5.71484 111.471 6.19531 111.471 6.73828V8.73633C111.471 9.2793 111.533 9.76172 111.658 10.1836C111.783 10.6016 111.965 10.9531 112.203 11.2383C112.441 11.5312 112.732 11.752 113.076 11.9004C113.42 12.0449 113.809 12.1172 114.242 12.1172C114.68 12.1172 115.068 12.043 115.408 11.8945C115.748 11.7461 116.035 11.5273 116.27 11.2383C116.504 10.9531 116.684 10.6016 116.809 10.1836C116.934 9.76172 116.996 9.2793 116.996 8.73633ZM112.561 8.51953C112.561 8.41797 112.561 8.31836 112.561 8.2207C112.561 8.12305 112.561 8.02539 112.561 7.92773V6.49805C112.561 6.09961 112.6 5.75 112.678 5.44922C112.76 5.14453 112.883 4.89648 113.047 4.70508C113.184 4.55273 113.35 4.4375 113.545 4.35938C113.744 4.27734 113.973 4.23633 114.23 4.23633C114.484 4.23633 114.707 4.27344 114.898 4.34766C115.094 4.42188 115.258 4.5332 115.391 4.68164C115.527 4.82617 115.635 5.00781 115.713 5.22656C115.795 5.44141 115.852 5.68945 115.883 5.9707L112.561 8.51953ZM115.906 8.96484C115.906 9.38281 115.863 9.74609 115.777 10.0547C115.695 10.3633 115.564 10.6133 115.385 10.8047C115.252 10.9453 115.09 11.0527 114.898 11.127C114.707 11.2012 114.488 11.2383 114.242 11.2383C114.008 11.2383 113.797 11.2051 113.609 11.1387C113.422 11.0684 113.262 10.9668 113.129 10.834C112.984 10.6934 112.867 10.5156 112.777 10.3008C112.688 10.082 112.625 9.83008 112.59 9.54492L115.906 7.00781C115.906 7.11719 115.906 7.25586 115.906 7.42383C115.906 7.58789 115.906 7.69922 115.906 7.75781V8.96484ZM127.244 3.46875H125.902V12H126.957V8.5957L126.869 5.15625L128.316 9.62695H128.938L130.514 5.0332L130.426 8.5957V12H131.48V3.46875H130.133L128.633 7.73438L127.244 3.46875ZM136.062 12.1172C136.68 12.1172 137.197 11.9941 137.615 11.748C138.037 11.498 138.354 11.2129 138.564 10.8926L137.902 10.377C137.703 10.6348 137.453 10.8418 137.152 10.998C136.852 11.1543 136.508 11.2324 136.121 11.2324C135.828 11.2324 135.561 11.1777 135.318 11.0684C135.076 10.959 134.869 10.8086 134.697 10.6172C134.529 10.4375 134.396 10.2305 134.299 9.99609C134.205 9.76172 134.145 9.49023 134.117 9.18164V9.14062H138.646V8.6543C138.646 8.21289 138.59 7.80273 138.477 7.42383C138.367 7.04492 138.199 6.71484 137.973 6.43359C137.746 6.15625 137.461 5.93945 137.117 5.7832C136.777 5.62305 136.379 5.54297 135.922 5.54297C135.559 5.54297 135.203 5.61719 134.855 5.76562C134.512 5.91406 134.205 6.12695 133.936 6.4043C133.662 6.68555 133.443 7.0293 133.279 7.43555C133.115 7.83789 133.033 8.29492 133.033 8.80664V9.05273C133.033 9.49414 133.107 9.90234 133.256 10.2773C133.404 10.6523 133.611 10.9766 133.877 11.25C134.143 11.5234 134.461 11.7363 134.832 11.8887C135.207 12.041 135.617 12.1172 136.062 12.1172ZM135.922 6.43359C136.199 6.43359 136.438 6.48438 136.637 6.58594C136.84 6.6875 137.008 6.82031 137.141 6.98438C137.273 7.14844 137.377 7.34375 137.451 7.57031C137.525 7.79297 137.562 8.00195 137.562 8.19727V8.25H134.152C134.195 7.95703 134.27 7.69922 134.375 7.47656C134.484 7.25 134.617 7.05859 134.773 6.90234C134.93 6.75 135.105 6.63477 135.301 6.55664C135.496 6.47461 135.703 6.43359 135.922 6.43359ZM140.639 3V3.94336H142.795V11.0625H140.639V12H145.947V11.0625H143.879V3H140.639ZM147.846 5.66016V6.60352H150.002V11.0625H147.846V12H153.154V11.0625H151.086V5.66016H147.846ZM149.861 3.99609C149.861 4.17188 149.914 4.31836 150.02 4.43555C150.129 4.55273 150.293 4.61133 150.512 4.61133C150.727 4.61133 150.889 4.55273 150.998 4.43555C151.107 4.31836 151.162 4.17188 151.162 3.99609C151.162 3.89844 151.146 3.80859 151.115 3.72656C151.084 3.64453 151.037 3.57617 150.975 3.52148C150.924 3.4707 150.859 3.43164 150.781 3.4043C150.703 3.37305 150.613 3.35742 150.512 3.35742C150.41 3.35742 150.318 3.37305 150.236 3.4043C150.158 3.43164 150.094 3.4707 150.043 3.52148C149.98 3.58008 149.934 3.65039 149.902 3.73242C149.875 3.81445 149.861 3.90234 149.861 3.99609ZM154.578 8.77148V8.90039C154.578 9.35742 154.645 9.78125 154.777 10.1719C154.91 10.5625 155.102 10.9023 155.352 11.1914C155.598 11.4805 155.898 11.707 156.254 11.8711C156.613 12.0352 157.018 12.1172 157.467 12.1172C157.912 12.1172 158.312 12.0352 158.668 11.8711C159.023 11.707 159.326 11.4805 159.576 11.1914C159.822 10.9023 160.012 10.5625 160.145 10.1719C160.277 9.78125 160.344 9.35742 160.344 8.90039V8.77148C160.344 8.31445 160.277 7.89062 160.145 7.5C160.012 7.10547 159.822 6.76367 159.576 6.47461C159.326 6.18555 159.021 5.95898 158.662 5.79492C158.307 5.62695 157.904 5.54297 157.455 5.54297C157.01 5.54297 156.609 5.62695 156.254 5.79492C155.898 5.95898 155.598 6.18555 155.352 6.47461C155.102 6.76367 154.91 7.10547 154.777 7.5C154.645 7.89062 154.578 8.31445 154.578 8.77148ZM155.662 8.90039V8.77148C155.662 8.46289 155.699 8.16797 155.773 7.88672C155.848 7.60156 155.961 7.35156 156.113 7.13672C156.262 6.92188 156.447 6.75195 156.67 6.62695C156.893 6.49805 157.154 6.43359 157.455 6.43359C157.756 6.43359 158.018 6.49805 158.24 6.62695C158.467 6.75195 158.656 6.92188 158.809 7.13672C158.957 7.35156 159.068 7.60156 159.143 7.88672C159.221 8.16797 159.26 8.46289 159.26 8.77148V8.90039C159.26 9.21289 159.223 9.51172 159.148 9.79688C159.074 10.0781 158.963 10.3262 158.814 10.541C158.662 10.7559 158.473 10.9258 158.246 11.0508C158.023 11.1758 157.764 11.2383 157.467 11.2383C157.166 11.2383 156.902 11.1758 156.676 11.0508C156.449 10.9258 156.262 10.7559 156.113 10.541C155.961 10.3262 155.848 10.0781 155.773 9.79688C155.699 9.51172 155.662 9.21289 155.662 8.90039ZM166.244 5.54297C165.783 5.54297 165.371 5.64453 165.008 5.84766C164.648 6.04688 164.34 6.32031 164.082 6.66797L164.076 6.50977L164.029 5.66016H162.998V12H164.088V7.93359C164.158 7.73828 164.246 7.5625 164.352 7.40625C164.461 7.24609 164.588 7.11133 164.732 7.00195C164.893 6.87695 165.08 6.7832 165.295 6.7207C165.51 6.6543 165.75 6.62109 166.016 6.62109C166.223 6.62109 166.42 6.63281 166.607 6.65625C166.799 6.67578 167 6.70898 167.211 6.75586L167.357 5.69531C167.248 5.64844 167.084 5.61133 166.865 5.58398C166.65 5.55664 166.443 5.54297 166.244 5.54297ZM173.463 12H174.594V11.9062C174.523 11.7305 174.469 11.5254 174.43 11.291C174.391 11.0527 174.371 10.8281 174.371 10.6172V7.66992C174.371 7.31445 174.307 7.00391 174.178 6.73828C174.049 6.47266 173.873 6.25 173.65 6.07031C173.424 5.89453 173.156 5.76367 172.848 5.67773C172.539 5.58789 172.205 5.54297 171.846 5.54297C171.451 5.54297 171.098 5.59766 170.785 5.70703C170.477 5.81641 170.215 5.95898 170 6.13477C169.781 6.31445 169.613 6.51562 169.496 6.73828C169.383 6.96094 169.324 7.1875 169.32 7.41797H170.41C170.41 7.28516 170.441 7.1582 170.504 7.03711C170.57 6.91211 170.662 6.80469 170.779 6.71484C170.896 6.625 171.039 6.55273 171.207 6.49805C171.379 6.44336 171.572 6.41602 171.787 6.41602C172.018 6.41602 172.225 6.44531 172.408 6.50391C172.596 6.5625 172.754 6.64453 172.883 6.75C173.012 6.85938 173.111 6.99023 173.182 7.14258C173.252 7.29492 173.287 7.4668 173.287 7.6582V8.15625H172.104C171.662 8.15625 171.262 8.19922 170.902 8.28516C170.547 8.37109 170.242 8.5 169.988 8.67188C169.734 8.84766 169.537 9.06641 169.396 9.32812C169.26 9.58984 169.191 9.89453 169.191 10.2422C169.191 10.5078 169.242 10.7559 169.344 10.9863C169.449 11.2129 169.598 11.4082 169.789 11.5723C169.977 11.7402 170.205 11.873 170.475 11.9707C170.748 12.0684 171.053 12.1172 171.389 12.1172C171.596 12.1172 171.791 12.0957 171.975 12.0527C172.158 12.0098 172.332 11.9512 172.496 11.877C172.656 11.8027 172.803 11.7168 172.936 11.6191C173.072 11.5215 173.195 11.418 173.305 11.3086C173.316 11.4414 173.334 11.5703 173.357 11.6953C173.385 11.8164 173.42 11.918 173.463 12ZM171.547 11.1738C171.336 11.1738 171.15 11.1465 170.99 11.0918C170.83 11.0371 170.697 10.9609 170.592 10.8633C170.486 10.7695 170.406 10.6562 170.352 10.5234C170.301 10.3906 170.275 10.2461 170.275 10.0898C170.275 9.92578 170.305 9.7793 170.363 9.65039C170.426 9.52148 170.516 9.41016 170.633 9.31641C170.797 9.18359 171.018 9.08594 171.295 9.02344C171.576 8.95703 171.904 8.92383 172.279 8.92383H173.287V10.207C173.225 10.332 173.139 10.4531 173.029 10.5703C172.92 10.6836 172.791 10.7852 172.643 10.875C172.49 10.9648 172.322 11.0371 172.139 11.0918C171.955 11.1465 171.758 11.1738 171.547 11.1738ZM179.252 11.748V10.7168H178.074V11.7656C178.074 12.0977 178.035 12.418 177.957 12.7266C177.879 13.0352 177.746 13.3262 177.559 13.5996L178.232 13.9688C178.545 13.6914 178.793 13.3496 178.977 12.9434C179.16 12.5371 179.252 12.1387 179.252 11.748ZM190.918 3.46875V4.41211H192.916V11.0625H190.918V12H196.074V11.0625H194.029V4.41211H196.074V3.46875H190.918ZM198.125 12H199.209V7.45312C199.283 7.31641 199.369 7.19141 199.467 7.07812C199.568 6.96484 199.678 6.86523 199.795 6.7793C199.939 6.68164 200.098 6.60547 200.27 6.55078C200.441 6.49219 200.627 6.46289 200.826 6.46289C201.057 6.46289 201.26 6.49023 201.436 6.54492C201.615 6.59961 201.768 6.6875 201.893 6.80859C202.014 6.92969 202.105 7.08789 202.168 7.2832C202.23 7.47852 202.262 7.7168 202.262 7.99805V12H203.346V7.97461C203.346 7.55273 203.293 7.18945 203.188 6.88477C203.086 6.57617 202.939 6.32227 202.748 6.12305C202.557 5.92383 202.324 5.77734 202.051 5.68359C201.781 5.58984 201.48 5.54297 201.148 5.54297C200.902 5.54688 200.668 5.58398 200.445 5.6543C200.227 5.7207 200.023 5.81641 199.836 5.94141C199.711 6.02344 199.592 6.12109 199.479 6.23438C199.369 6.34375 199.268 6.46484 199.174 6.59766L199.098 5.66016H198.125V12ZM208.033 11.2383C207.693 11.2383 207.408 11.1719 207.178 11.0391C206.951 10.9023 206.77 10.7246 206.633 10.5059C206.492 10.291 206.391 10.0488 206.328 9.7793C206.27 9.50586 206.24 9.23047 206.24 8.95312V8.70703C206.24 8.43359 206.27 8.16211 206.328 7.89258C206.391 7.62305 206.492 7.37891 206.633 7.16016C206.773 6.94531 206.957 6.77148 207.184 6.63867C207.414 6.50195 207.697 6.43359 208.033 6.43359C208.252 6.43359 208.455 6.4707 208.643 6.54492C208.834 6.61914 208.998 6.7207 209.135 6.84961C209.271 6.97852 209.379 7.12891 209.457 7.30078C209.539 7.46875 209.582 7.64844 209.586 7.83984H210.611C210.611 7.51953 210.547 7.21875 210.418 6.9375C210.289 6.65625 210.111 6.41211 209.885 6.20508C209.654 6.00195 209.381 5.8418 209.064 5.72461C208.752 5.60352 208.408 5.54297 208.033 5.54297C207.553 5.54297 207.133 5.62891 206.773 5.80078C206.414 5.97266 206.115 6.20312 205.877 6.49219C205.635 6.78516 205.453 7.12305 205.332 7.50586C205.211 7.88867 205.15 8.28906 205.15 8.70703V8.95312C205.15 9.375 205.211 9.77734 205.332 10.1602C205.453 10.5391 205.635 10.873 205.877 11.1621C206.115 11.4551 206.414 11.6875 206.773 11.8594C207.133 12.0312 207.553 12.1172 208.033 12.1172C208.369 12.1172 208.691 12.0605 209 11.9473C209.309 11.8301 209.582 11.6738 209.82 11.4785C210.059 11.2871 210.248 11.0645 210.389 10.8105C210.533 10.5527 210.607 10.2832 210.611 10.002H209.586C209.582 10.1777 209.535 10.3418 209.445 10.4941C209.359 10.6426 209.244 10.7715 209.1 10.8809C208.955 10.9941 208.789 11.082 208.602 11.1445C208.418 11.207 208.229 11.2383 208.033 11.2383Z" fill="#474747"/>
    <g clip-path="url(#clip0)">
        <path d="M76 15C74.3973 15 72.8906 14.3759 71.7573 13.2427C70.6241 12.1094 70 10.6027 70 9C70 7.39734 70.6241 5.89062 71.7573 4.75734C72.8906 3.62412 74.3973 3 76 3C77.6027 3 79.1094 3.62412 80.2427 4.75734C81.3759 5.89062 82 7.39734 82 9C82 10.6027 81.3759 12.1094 80.2427 13.2427C79.1094 14.3759 77.6027 15 76 15ZM76 3.9375C73.2085 3.9375 70.9375 6.20852 70.9375 9C70.9375 11.7915 73.2085 14.0625 76 14.0625C78.7915 14.0625 81.0625 11.7915 81.0625 9C81.0625 6.20852 78.7915 3.9375 76 3.9375ZM78.1167 11.1545C78.2998 10.9714 78.2998 10.6746 78.1167 10.4916C77.9336 10.3085 77.6368 10.3085 77.4538 10.4916C76.6313 11.314 75.2931 11.314 74.4707 10.4916C74.0723 10.0931 73.8529 9.56344 73.8529 9C73.8529 8.43656 74.0723 7.90685 74.4707 7.50844C75.2931 6.68597 76.6313 6.68602 77.4538 7.50844C77.6369 7.69151 77.9337 7.69151 78.1167 7.50844C78.2998 7.32537 78.2998 7.02858 78.1167 6.84553C76.9287 5.65755 74.9957 5.65758 73.8078 6.84553C73.2323 7.42102 72.9153 8.18616 72.9153 9C72.9153 9.81384 73.2323 10.579 73.8078 11.1545C74.4018 11.7484 75.182 12.0454 75.9622 12.0454C76.7425 12.0454 77.5227 11.7484 78.1167 11.1545Z" fill="#474747"/>
    </g>
    <defs>
        <clipPath id="clip0">
            <rect width="12" height="12" fill="white" transform="translate(70 3)"/>
        </clipPath>
    </defs>
</svg>
